<?xml version="1.0" encoding="UTF-8" standalone="no"?>
<!-- Created with Inkscape (http://www.inkscape.org/) -->
<svg
   xmlns:dc="http://purl.org/dc/elements/1.1/"
   xmlns:cc="http://creativecommons.org/ns#"
   xmlns:rdf="http://www.w3.org/1999/02/22-rdf-syntax-ns#"
   xmlns:svg="http://www.w3.org/2000/svg"
   xmlns="http://www.w3.org/2000/svg"
   xmlns:sodipodi="http://sodipodi.sourceforge.net/DTD/sodipodi-0.dtd"
   xmlns:inkscape="http://www.inkscape.org/namespaces/inkscape"
   width="744.09448819"
   height="1052.3622047"
   id="svg2"
   sodipodi:version="0.32"
   inkscape:version="0.46"
   sodipodi:docname="mspire_logo_new.svg"
   inkscape:output_extension="org.inkscape.output.svg.inkscape">
  <defs
     id="defs4">
    <inkscape:perspective
       sodipodi:type="inkscape:persp3d"
       inkscape:vp_x="0 : 526.18109 : 1"
       inkscape:vp_y="0 : 1000 : 0"
       inkscape:vp_z="744.09448 : 526.18109 : 1"
       inkscape:persp3d-origin="372.04724 : 350.78739 : 1"
       id="perspective10" />
    <filter
       inkscape:collect="always"
       id="filter3421">
      <feGaussianBlur
         inkscape:collect="always"
         stdDeviation="0.82481249"
         id="feGaussianBlur3423" />
    </filter>
    <filter
       inkscape:collect="always"
       id="filter3254">
      <feGaussianBlur
         inkscape:collect="always"
         stdDeviation="0.40402692"
         id="feGaussianBlur3256" />
    </filter>
    <filter
       inkscape:collect="always"
       id="filter3417">
      <feGaussianBlur
         inkscape:collect="always"
         stdDeviation="0.37801811"
         id="feGaussianBlur3419" />
    </filter>
    <filter
       inkscape:collect="always"
       id="filter3422">
      <feGaussianBlur
         inkscape:collect="always"
         stdDeviation="0.36565732"
         id="feGaussianBlur3424" />
    </filter>
    <filter
       inkscape:collect="always"
       id="filter3426">
      <feGaussianBlur
         inkscape:collect="always"
         stdDeviation="0.34781185"
         id="feGaussianBlur3428" />
    </filter>
  </defs>
  <sodipodi:namedview
     id="base"
     pagecolor="#ffffff"
     bordercolor="#666666"
     borderopacity="1.0"
     gridtolerance="10000"
     guidetolerance="10"
     objecttolerance="10"
     inkscape:pageopacity="0.0"
     inkscape:pageshadow="2"
     inkscape:zoom="2.8"
     inkscape:cx="347.74599"
     inkscape:cy="875.0503"
     inkscape:document-units="px"
     inkscape:current-layer="layer1"
     showgrid="false"
     inkscape:window-width="1200"
     inkscape:window-height="989"
     inkscape:window-x="0"
     inkscape:window-y="15" />
  <metadata
     id="metadata7">
    <rdf:RDF>
      <cc:Work
         rdf:about="">
        <dc:format>image/svg+xml</dc:format>
        <dc:type
           rdf:resource="http://purl.org/dc/dcmitype/StillImage" />
      </cc:Work>
    </rdf:RDF>
  </metadata>
  <g
     inkscape:label="Layer 1"
     inkscape:groupmode="layer"
     id="layer1">
    <path
       transform="matrix(1.2156357,0,0,1.13772,-161.74947,-4.9988258)"
       style="fill:#6c0a0a;fill-opacity:1;stroke:#000000;stroke-width:0.43043151;stroke-miterlimit:4;stroke-dasharray:none;stroke-opacity:1;filter:url(#filter3426)"
       d="M 517.85714,180.21933 A 95.714287,40.714287 0 1 1 326.42857,180.21933 A 95.714287,40.714287 0 1 1 517.85714,180.21933 z"
       sodipodi:ry="40.714287"
       sodipodi:rx="95.714287"
       sodipodi:cy="180.21933"
       sodipodi:cx="422.14285"
       id="path3191"
       sodipodi:type="arc"
       inkscape:export-filename="/home/jtprince/dev/ms-template/website/mspire_v2_banner.png"
       inkscape:export-xdpi="89.531647"
       inkscape:export-ydpi="89.531647" />
    <path
       sodipodi:type="arc"
       id="path3193"
       sodipodi:cx="422.14285"
       sodipodi:cy="180.21933"
       sodipodi:rx="95.714287"
       sodipodi:ry="40.714287"
       d="M 517.85714,180.21933 A 95.714287,40.714287 0 1 1 326.42857,180.21933 A 95.714287,40.714287 0 1 1 517.85714,180.21933 z"
       style="fill:#5e5454;fill-opacity:1;stroke:none;stroke-opacity:1;filter:url(#filter3422)"
       transform="matrix(1.1634466,0,0,1.0755549,-139.71821,2.5526416)"
       inkscape:export-filename="/home/jtprince/dev/ms-template/website/mspire_v2_banner.png"
       inkscape:export-xdpi="89.531647"
       inkscape:export-ydpi="89.531647" />
    <path
       sodipodi:type="arc"
       id="path3195"
       sodipodi:cx="422.14285"
       sodipodi:cy="180.21933"
       sodipodi:rx="95.714287"
       sodipodi:ry="40.714287"
       d="M 517.85714,180.21933 A 95.714287,40.714287 0 1 1 326.42857,180.21933 A 95.714287,40.714287 0 1 1 517.85714,180.21933 z"
       style="fill:#6c0a0a;fill-opacity:1;stroke:#ffffff;stroke-width:0.25168341;stroke-miterlimit:4;stroke-dasharray:none;stroke-opacity:1;filter:url(#filter3417)"
       transform="matrix(1.1328219,0,0,1.033572,-126.79022,13.630132)"
       inkscape:export-filename="/home/jtprince/dev/ms-template/website/mspire_v2_banner.png"
       inkscape:export-xdpi="89.531647"
       inkscape:export-ydpi="89.531647" />
    <path
       style="font-size:40px;font-style:normal;font-weight:normal;fill:#ffffff;fill-opacity:1;stroke:#0f0000;stroke-width:0.88456613;stroke-linecap:butt;stroke-linejoin:miter;stroke-miterlimit:4;stroke-dasharray:none;stroke-opacity:1;font-family:Bitstream Vera Sans"
       d="M 317.95582,195.34962 L 309.46399,195.34962 L 309.46399,181.14602 C 309.46395,179.46115 309.12697,178.02899 308.45305,176.84955 C 307.64427,175.43427 306.44801,174.72662 304.86425,174.7266 C 303.51631,174.72662 302.15155,175.18155 300.76997,176.09136 C 299.25355,177.06862 298.49534,178.19749 298.49537,179.47798 L 298.49537,190.39606 C 298.49534,192.21573 298.71438,193.26036 299.15247,193.52995 C 299.35464,193.69843 301.50732,193.55554 302.01378,194.32335 L 302.69074,195.34962 L 290.05408,195.34962 L 290.56181,194.37976 C 290.92215,193.69144 293.35644,193.69843 293.59234,193.52995 C 294.0304,193.22667 294.24943,192.18205 294.24945,190.39606 L 294.24945,180.94383 C 294.24943,179.32636 293.8956,177.94475 293.18797,176.79901 C 292.37921,175.41741 291.19978,174.72662 289.64971,174.7266 C 288.30178,174.72662 286.93702,175.18155 285.55543,176.09136 C 284.03901,177.06862 283.28082,178.19749 283.28083,179.47798 L 283.28083,190.39606 C 283.28082,192.18205 283.46616,193.22667 283.83685,193.52995 C 284.07272,193.69843 286.50102,193.68846 286.82271,194.37976 L 287.27402,195.34962 L 274.83955,195.34962 L 275.17803,194.37976 C 275.39762,193.75055 278.14192,193.69843 278.37781,193.52995 C 278.81587,193.22667 279.0349,192.18205 279.03491,190.39606 L 279.03491,178.61868 C 279.0349,176.79902 278.81587,175.73755 278.37781,175.43425 C 278.10821,175.23209 276.9625,175.13099 274.94064,175.13097 L 275.29964,174.27413 C 275.56571,173.63914 280.87935,172.74881 280.96828,170.29215 L 283.28083,106.4056 L 283.28083,176.1419 L 286.76855,172.90692 C 287.67838,172.06449 289.07682,171.64327 290.96392,171.64325 C 294.26629,171.64327 296.65882,173.21022 298.14155,176.34409 L 301.98309,172.90692 C 302.9266,172.06449 304.30819,171.64327 306.12791,171.64325 C 308.55412,171.64327 310.42434,172.38462 311.73859,173.86731 C 313.05277,175.35003 313.70986,177.32134 313.70991,179.78126 L 313.70991,190.19387 C 313.70986,192.28314 313.9963,193.42885 314.5692,193.63104 C 314.80504,193.73213 316.94941,193.72003 317.39169,194.43617 L 317.95582,195.34962 M 338.41774,187.86872 C 338.41771,190.69933 337.1709,192.8223 334.67728,194.2376 C 332.65541,195.41702 330.12808,196.00673 327.09529,196.00673 C 326.18544,196.00673 323.87715,195.7203 320.1704,195.14743 C 320.54107,193.29406 320.72641,190.95206 320.72641,188.12146 C 320.72641,188.12146 321.32879,188.36391 321.65046,188.6856 C 322.0901,189.12523 322.24281,190.19387 322.24281,190.19387 C 322.2428,191.64288 322.9673,192.7549 324.41632,193.52995 C 325.59573,194.17021 326.97734,194.49034 328.56114,194.49034 C 330.21232,194.49034 331.59393,194.1365 332.70596,193.42885 C 334.02017,192.58642 334.67727,191.39014 334.67728,189.84004 C 334.67727,188.86282 334.42454,188.10461 333.91909,187.56544 C 333.4136,187.02629 332.588,186.62191 331.44229,186.35232 C 330.43135,186.11645 328.9318,185.72891 326.94364,185.18975 C 324.82068,184.58321 323.32113,183.94295 322.44499,183.26898 C 321.16448,182.25806 320.52423,180.82591 320.52423,178.97251 C 320.52423,176.41151 321.50145,174.50758 323.45593,173.26075 C 325.10711,172.18243 327.28062,171.64327 329.97644,171.64325 C 331.9646,171.64327 338.13296,173.31833 338.1835,173.58388 C 338.2226,175.14212 338.76535,177.59143 336.26657,178.252 L 334.87948,178.61868 L 334.87948,177.45612 C 334.87944,176.10823 334.18865,175.04675 332.80705,174.27168 C 331.69502,173.63144 330.39765,173.31132 328.91497,173.31129 C 325.67997,173.31132 324.06248,174.62553 324.06249,177.25392 C 324.06248,178.43337 324.46685,179.32636 325.27561,179.9329 C 326.08434,180.53947 327.73554,181.09549 330.22918,181.60094 C 332.95869,182.10642 334.81205,182.64558 335.78931,183.21843 C 337.54157,184.19567 338.41771,185.74577 338.41774,187.86872 M 368.07991,181.65148 C 368.07989,183.10051 367.64182,184.86963 366.76571,186.95889 C 365.82215,189.21664 364.79436,190.69933 363.68236,191.40699 L 357.92004,195.14743 C 357.44827,195.45071 356.25199,195.60236 354.33124,195.60236 C 351.80389,195.60236 350.00107,195.29908 348.92274,194.69252 L 348.92274,204.09419 C 348.92274,205.91386 349.14177,206.95849 349.57985,207.22809 C 349.78203,207.39656 351.98604,207.35929 352.49757,208.19074 L 353.11811,209.1994 C 350.96145,209.0983 349.4282,209.04775 348.51837,209.04776 L 345.0812,209.04776 C 344.13765,209.04775 342.60441,209.0983 340.48145,209.1994 L 341.0738,208.33176 C 341.54162,207.64651 343.78382,207.39656 344.01972,207.22809 C 344.45779,206.9248 344.67682,205.88016 344.67682,204.09419 L 344.67682,178.61868 C 344.67682,176.79902 344.45779,175.73755 344.01972,175.43425 C 343.75014,175.23209 342.60441,175.13099 340.58255,175.13097 L 341.10111,174.11457 C 341.55795,173.21917 346.53043,173.07465 346.66258,170.28932 L 348.92274,122.65273 L 348.92274,176.69792 L 353.06757,172.90692 C 353.97739,172.06449 355.47695,171.64327 357.56622,171.64325 C 360.4305,171.64327 362.89045,172.60366 364.94602,174.52441 C 367.03526,176.41151 368.07989,178.7872 368.07991,181.65148 M 363.68236,183.52172 C 363.68234,180.96069 363.02523,178.92198 361.71104,177.40557 C 360.32941,175.7544 358.3918,174.92881 355.89818,174.92879 C 353.33714,174.92881 351.31527,175.87234 349.83258,177.7594 C 349.22602,178.53447 348.92274,179.24212 348.92274,179.88235 L 348.92274,190.39606 C 350.7761,192.38423 353.05071,193.3783 355.74654,193.3783 C 358.20646,193.3783 360.19462,192.31682 361.71104,190.19387 C 363.02523,188.3068 363.68234,186.08274 363.68236,183.52172 M 380.44173,163.45469 C 380.44172,164.19608 380.15529,164.85318 379.58244,165.42602 C 379.00956,165.96521 378.35246,166.23479 377.61112,166.23476 C 376.86976,166.23479 376.21265,165.96521 375.6398,165.42602 C 375.10063,164.85318 374.83105,164.19608 374.83105,163.45469 C 374.83105,162.67968 375.10063,162.02258 375.6398,161.48337 C 376.21265,160.91054 376.88661,160.62412 377.66166,160.62408 C 378.36932,160.62412 379.00956,160.9274 379.58244,161.53393 C 380.15529,162.10682 380.44172,162.74709 380.44173,163.45469 M 384.18218,195.34962 L 371.54552,195.34962 L 372.10966,194.5208 C 372.57346,193.83936 374.78051,193.71529 374.98269,193.58049 C 375.48816,193.27721 375.74089,192.29999 375.74089,190.64878 L 375.74089,178.4165 C 375.74089,176.66423 375.48816,175.65331 374.98269,175.3837 C 374.7468,175.21523 373.63478,175.13099 371.64662,175.13097 L 372.04151,173.60284 C 372.35658,172.38358 376.46539,172.7216 379.53188,171.64325 L 379.98681,171.84544 L 379.98681,190.19387 C 379.98681,192.11464 380.17214,193.20982 380.54282,193.4794 C 380.77869,193.68158 382.91968,193.64832 383.42059,194.32335 L 384.18218,195.34962 M 406.4519,173.3162 L 403.64343,178.26486 L 402.54205,178.1053 C 400.84157,177.85894 400.71171,175.93974 399.19533,175.93972 C 397.8811,175.93974 396.80277,176.52945 395.96035,177.70885 C 395.11788,178.85458 394.69666,180.11825 394.69668,181.49985 L 394.69668,190.39606 C 394.69666,191.47439 394.71351,192.11464 394.74722,192.31682 C 394.8483,193.09187 395.18529,193.54679 395.75815,193.68158 C 396.02772,193.74898 396.4658,193.79952 397.07237,193.83323 C 397.07237,193.83323 398.45344,193.8618 398.99562,194.43617 C 399.27667,194.7339 399.7008,195.34962 399.7008,195.34962 L 386.25538,195.34962 L 386.87594,194.5208 C 387.25162,194.01901 389.50722,193.71529 389.74311,193.58049 C 390.21487,193.27721 390.45075,192.26628 390.45076,190.54769 L 390.45076,178.46705 C 390.45075,176.74847 390.23171,175.73755 389.79365,175.43425 C 389.49036,175.23209 388.34464,175.13099 386.35648,175.13097 L 387.11441,174.07468 C 387.76504,173.1679 392.65521,173.58544 392.84793,169.75705 L 394.69668,133.03285 L 394.69668,177.05174 L 397.52729,173.71566 C 398.70669,172.33408 400.10516,171.64327 401.72265,171.64325 C 402.73356,171.64327 404.52273,171.82862 405.09561,172.23915 M 427.78103,181.24711 C 427.78101,181.6852 427.7473,182.27491 427.67994,183.01624 C 425.05149,183.42063 422.33883,183.65651 419.54193,183.7239 C 419.40712,183.72391 416.61021,183.72391 411.15119,183.7239 C 411.15118,185.20661 411.26913,186.36918 411.50502,187.21161 C 412.68443,191.52494 415.51503,193.68158 419.99684,193.68158 C 421.20996,193.68158 422.37251,193.4457 423.48457,192.97393 C 423.99001,192.77174 425.01779,192.21573 426.5679,191.30589 C 426.5679,191.30589 427.42158,191.69174 427.5635,191.89597 C 428.28403,192.93293 427.9065,195.73008 427.9065,195.73008 C 427.80538,195.89856 427.14275,194.78732 425.43941,195.20249 C 424.74129,195.37266 420.80558,196.00673 417.7728,196.00673 C 410.22449,196.00673 406.45035,192.0978 406.45035,184.27991 C 406.45035,181.6852 406.87157,179.56225 407.71402,177.91103 C 408.59015,176.22617 410.10655,174.76032 412.26321,173.51347 C 414.41986,172.26668 416.45857,171.64327 418.37936,171.64325 C 421.24364,171.64327 423.51824,172.53626 425.20316,174.32223 C 426.92171,176.07452 427.78101,178.38282 427.78103,181.24711 M 423.28238,181.85367 C 423.04648,176.15877 421.20996,173.31132 417.7728,173.31129 C 416.15529,173.31132 414.75683,173.85047 413.57743,174.92879 C 412.4317,175.97343 411.72404,177.30449 411.45447,178.92197 C 411.31967,179.59594 411.25227,180.52262 411.25228,181.70203 C 413.27413,181.90423 414.79053,182.00532 415.80147,182.00531 L 418.27826,182.00531 C 419.65985,182.00532 421.32789,181.95478 423.28238,181.85367"
       id="text2383"
       sodipodi:nodetypes="cccssccccsccsscccscccssccssccscsscccsccssccsscccsccscssssssccscscscccsssccccsccscccsccccssccscsscccsccccssccsccccscsssccccssccccscccsscccsscccsscsccssccscsscccssccsccsscscssscsscccssccccc"
       inkscape:export-filename="/home/jtprince/dev/ms-template/website/mspire_v2_banner.png"
       inkscape:export-xdpi="89.531647"
       inkscape:export-ydpi="89.531647" />
    <text
       xml:space="preserve"
       style="font-size:40.49612427px;font-style:normal;font-weight:normal;line-height:125%;fill:#ffffff;fill-opacity:1;stroke:none;stroke-width:1px;stroke-linecap:butt;stroke-linejoin:miter;stroke-opacity:1;font-family:Bitstream Vera Sans"
       x="257.83633"
       y="216.78387"
       id="text2395"
       inkscape:export-filename="/home/jtprince/dev/ms-template/website/mspire_v2_banner.png"
       inkscape:export-xdpi="89.531647"
       inkscape:export-ydpi="89.531647"
       sodipodi:linespacing="125%"><tspan
         sodipodi:role="line"
         id="tspan2397"
         x="257.83633"
         y="216.78387"
         style="font-size:8.60542679px;font-style:normal;font-variant:normal;font-weight:bold;font-stretch:normal;text-align:start;line-height:125%;writing-mode:lr-tb;text-anchor:start;fill:#ffffff;fill-opacity:1;font-family:Verdana;-inkscape-font-specification:Verdana Bold">mass spectrometry proteomics in ruby</tspan></text>
  </g>
</svg>
